<!--?xml version="1.0" standalone="no"?-->
              <svg id="sw-js-blob-svg" viewBox="0 0 100 100" xmlns="http://www.w3.org/2000/svg" version="1.1">
                    <defs> 
                        <linearGradient id="sw-gradient" x1="0" x2="1" y1="1" y2="0">
                            <stop id="stop1" stop-color="rgba(63.68, 47.822, 133.263, 1)" offset="0%"></stop>
                            <stop id="stop2" stop-color="rgba(39.366, 185.629, 96.447, 1)" offset="100%"></stop>
                        </linearGradient>
                    </defs>
                <path fill="url(#sw-gradient)" d="M17.4,-29C24.2,-26.3,32.4,-24.8,37.9,-20.2C43.5,-15.6,46.4,-7.8,46.7,0.2C47.1,8.2,44.8,16.4,40.2,22.7C35.7,29.1,28.9,33.6,21.8,34.6C14.7,35.5,7.3,32.8,-0.1,33.1C-7.6,33.3,-15.2,36.3,-21,34.7C-26.8,33,-30.9,26.6,-35,20C-39,13.5,-43,6.7,-43.4,-0.2C-43.7,-7.1,-40.4,-14.3,-35.5,-19.4C-30.7,-24.6,-24.3,-27.8,-18.1,-30.9C-11.9,-34,-6,-37,-0.3,-36.5C5.3,-35.9,10.7,-31.8,17.4,-29Z" width="100%" height="100%" transform="translate(50 50)" stroke-width="0" style="transition: all 0.3s ease 0s;" stroke="url(#sw-gradient)"></path>
              </svg>